<mxfile host="Electron" agent="Mozilla/5.0 (Windows NT 10.0; Win64; x64) AppleWebKit/537.36 (KHTML, like Gecko) draw.io/28.0.4 Chrome/138.0.7204.97 Electron/37.2.1 Safari/537.36" version="28.0.4">
  <diagram id="d3" name="Медкарта и анализы">
    <mxGraphModel dx="3266" dy="1201" grid="1" gridSize="10" guides="1" tooltips="1" connect="1" arrows="1" fold="1" page="1" pageScale="1" pageWidth="1200" pageHeight="800" math="0" shadow="0">
      <root>
        <mxCell id="0" />
        <mxCell id="1" parent="0" />
        <mxCell id="doc" value="Медик специалист" style="shape=ellipse;whiteSpace=wrap;html=1;" parent="1" vertex="1">
          <mxGeometry x="-100" y="125" width="160" height="60" as="geometry" />
        </mxCell>
        <mxCell id="lab" value="Лаборатория" style="shape=ellipse;whiteSpace=wrap;html=1;" parent="1" vertex="1">
          <mxGeometry x="-100" y="325" width="140" height="60" as="geometry" />
        </mxCell>
        <mxCell id="p1" value="Ведение медкарты" style="shape=process;rounded=1;whiteSpace=wrap;html=1;" parent="1" vertex="1">
          <mxGeometry x="120" y="115" width="220" height="80" as="geometry" />
        </mxCell>
        <mxCell id="p2" value="Обработка анализов" style="shape=process;rounded=1;whiteSpace=wrap;html=1;" parent="1" vertex="1">
          <mxGeometry x="120" y="315" width="220" height="80" as="geometry" />
        </mxCell>
        <mxCell id="fs" value="Файловый сервер сканы" style="shape=cylinder;whiteSpace=wrap;html=1;boundedLbl=1;" parent="1" vertex="1">
          <mxGeometry x="520" y="90" width="230" height="110" as="geometry" />
        </mxCell>
        <mxCell id="pdf" value="Отчеты анализов PDF" style="shape=cylinder;whiteSpace=wrap;html=1;boundedLbl=1;" parent="1" vertex="1">
          <mxGeometry x="520" y="300" width="230" height="110" as="geometry" />
        </mxCell>
        <mxCell id="me1" value="Данные осмотра" style="endArrow=classic;html=1;" parent="1" source="doc" target="p1" edge="1">
          <mxGeometry relative="1" as="geometry" />
        </mxCell>
        <mxCell id="me2" value="Запись в медкарту" style="endArrow=classic;html=1;" parent="1" source="p1" target="fs" edge="1">
          <mxGeometry relative="1" as="geometry" />
        </mxCell>
        <mxCell id="me3" value="Материалы в лаб" style="endArrow=classic;html=1;" parent="1" source="p1" target="p2" edge="1">
          <mxGeometry relative="1" as="geometry" />
        </mxCell>
        <mxCell id="me4" value="Результаты анализов" style="endArrow=classic;html=1;" parent="1" source="lab" target="p2" edge="1">
          <mxGeometry relative="1" as="geometry" />
        </mxCell>
        <mxCell id="me5" value="Отчет" style="endArrow=classic;html=1;" parent="1" source="p2" target="pdf" edge="1">
          <mxGeometry relative="1" as="geometry" />
        </mxCell>
        <mxCell id="tag3" value="Тег медданные высокий" style="shape=note;whiteSpace=wrap;html=1;fillColor=#fff2cc;strokeColor=#d6b656;" parent="1" vertex="1">
          <mxGeometry x="770" y="90" width="180" height="50" as="geometry" />
        </mxCell>
        <mxCell id="ctrl6" value="Шифрование при хранении" style="shape=note;whiteSpace=wrap;html=1;fillColor=#dae8fc;strokeColor=#6c8ebf;" parent="1" vertex="1">
          <mxGeometry x="520" y="210" width="200" height="50" as="geometry" />
        </mxCell>
        <mxCell id="ctrl7" value="Доступ по роли врач" style="shape=note;whiteSpace=wrap;html=1;fillColor=#e1d5e7;strokeColor=#9673a6;" parent="1" vertex="1">
          <mxGeometry x="120" y="75" width="190" height="50" as="geometry" />
        </mxCell>
      </root>
    </mxGraphModel>
  </diagram>
</mxfile>
